<svg xmlns="http://www.w3.org/2000/svg" width="60" height="60" viewBox="0 0 60 60">
  <g id="asr" transform="translate(-637 -765)">
    <g id="Group_866" data-name="Group 866">
      <g id="Ellipse_12" data-name="Ellipse 12" transform="translate(637 765)" fill="none" stroke="#f99506" stroke-width="2">
        <circle cx="30" cy="30" r="30" stroke="none"/>
        <circle cx="30" cy="30" r="29" fill="none"/>
      </g>
      <g id="Group_865" data-name="Group 865" transform="translate(-1 -5)">
        <g id="Ellipse_13" data-name="Ellipse 13" transform="translate(660 792)" fill="none" stroke="#f99506" stroke-width="2">
          <circle cx="8" cy="8" r="8" stroke="none"/>
          <circle cx="8" cy="8" r="7" fill="none"/>
        </g>
        <g id="Group_864" data-name="Group 864" transform="translate(0.165)">
          <g id="Group_857" data-name="Group 857" transform="translate(656 776)">
            <path id="Path_3141" data-name="Path 3141" d="M1426.868,199.216c0-1.809-.006-3.617,0-5.426a1.335,1.335,0,0,1,.915-1.294,1.3,1.3,0,0,1,1.486.408,1.749,1.749,0,0,1,.333.927q.034,5.4.01,10.8a1.374,1.374,0,1,1-2.746-.04C1426.86,202.8,1426.867,201.008,1426.868,199.216Z" transform="translate(-1417.031 -192.415)" fill="#f99506"/>
            <path id="Path_3142" data-name="Path 3142" d="M1471.8,249.065a1.386,1.386,0,0,1,1.345,1.958c-.682,1.689-1.39,3.368-2.087,5.051-.148.357-.285.72-.448,1.07a1.374,1.374,0,0,1-1.819.723,1.354,1.354,0,0,1-.726-1.778q1.252-3.093,2.548-6.168A1.3,1.3,0,0,1,1471.8,249.065Z" transform="translate(-1449.521 -243.574)" fill="#f99506"/>
            <path id="Path_3143" data-name="Path 3143" d="M1364.78,256.449a1.4,1.4,0,0,1-1.079,1.441,1.371,1.371,0,0,1-1.594-.874c-.644-1.53-1.272-3.067-1.907-4.6-.2-.491-.42-.978-.609-1.475a1.377,1.377,0,0,1,.761-1.839,1.363,1.363,0,0,1,1.791.786q1.272,3.032,2.515,6.075A2.656,2.656,0,0,1,1364.78,256.449Z" transform="translate(-1359.482 -243.515)" fill="#f99506"/>
          </g>
          <g id="Group_861" data-name="Group 861" transform="translate(656 810)">
            <path id="Path_3141-2" data-name="Path 3141" d="M1426.868,199.228c0,1.809-.006,3.617,0,5.426a1.335,1.335,0,0,0,.915,1.294,1.3,1.3,0,0,0,1.486-.408,1.749,1.749,0,0,0,.333-.927q.034-5.4.01-10.8a1.374,1.374,0,1,0-2.746.04C1426.86,195.643,1426.867,197.436,1426.868,199.228Z" transform="translate(-1417.031 -191.619)" fill="#f99506" opacity="0.64"/>
            <path id="Path_3142-2" data-name="Path 3142" d="M1471.8,257.984a1.386,1.386,0,0,0,1.345-1.958c-.682-1.689-1.39-3.368-2.087-5.051-.148-.357-.285-.72-.448-1.07a1.374,1.374,0,0,0-1.819-.723,1.354,1.354,0,0,0-.726,1.778q1.252,3.093,2.548,6.168A1.3,1.3,0,0,0,1471.8,257.984Z" transform="translate(-1449.521 -249.065)" fill="#f99506"/>
            <path id="Path_3143-2" data-name="Path 3143" d="M1364.78,250.476a1.4,1.4,0,0,0-1.079-1.441,1.371,1.371,0,0,0-1.594.874c-.644,1.53-1.272,3.067-1.907,4.6-.2.491-.42.978-.609,1.475a1.377,1.377,0,0,0,.761,1.839,1.363,1.363,0,0,0,1.791-.786q1.272-3.032,2.515-6.075A2.656,2.656,0,0,0,1364.78,250.476Z" transform="translate(-1359.482 -249)" fill="#f99506"/>
          </g>
          <g id="Group_862" data-name="Group 862" transform="translate(679.25 811.996) rotate(-91)">
            <path id="Path_3141-3" data-name="Path 3141" d="M1429.621,199.228c0,1.809.006,3.617,0,5.426a1.335,1.335,0,0,1-.915,1.294,1.3,1.3,0,0,1-1.486-.408,1.749,1.749,0,0,1-.333-.927q-.034-5.4-.01-10.8a1.374,1.374,0,1,1,2.746.04C1429.63,195.643,1429.622,197.436,1429.621,199.228Z" transform="translate(-1415.715 -191.619)" fill="#f99506"/>
            <path id="Path_3142-3" data-name="Path 3142" d="M1469.423,257.984a1.386,1.386,0,0,1-1.345-1.958c.682-1.689,1.39-3.368,2.087-5.051.148-.357.285-.72.448-1.07a1.374,1.374,0,0,1,1.819-.723,1.354,1.354,0,0,1,.726,1.778q-1.252,3.093-2.548,6.168A1.3,1.3,0,0,1,1469.423,257.984Z" transform="translate(-1467.959 -249.065)" fill="#f99506" opacity="0.48"/>
            <path id="Path_3143-3" data-name="Path 3143" d="M1359.482,250.476a1.4,1.4,0,0,1,1.079-1.441,1.371,1.371,0,0,1,1.594.874c.644,1.53,1.272,3.067,1.907,4.6.2.491.42.978.609,1.475a1.377,1.377,0,0,1-.761,1.839,1.363,1.363,0,0,1-1.791-.786q-1.272-3.032-2.515-6.075A2.656,2.656,0,0,1,1359.482,250.476Z" transform="translate(-1341.036 -249)" fill="#f99506" opacity="0.58"/>
          </g>
          <g id="Group_863" data-name="Group 863" transform="matrix(0.017, -1, 1, 0.017, 642.835, 811.744)">
            <path id="Path_3141-4" data-name="Path 3141" d="M2.757,6.8c0-1.809.006-3.617,0-5.426A1.335,1.335,0,0,0,1.837.08,1.3,1.3,0,0,0,.351.488a1.749,1.749,0,0,0-.333.927q-.034,5.4-.01,10.8a1.348,1.348,0,0,0,1.37,1.4,1.36,1.36,0,0,0,1.376-1.436C2.765,10.386,2.758,8.593,2.757,6.8Z" transform="translate(11.15 0)" fill="#f99506"/>
            <path id="Path_3142-4" data-name="Path 3142" d="M1.464,0A1.386,1.386,0,0,0,.119,1.958C.8,3.647,1.508,5.325,2.206,7.008c.148.357.285.72.448,1.07A1.374,1.374,0,0,0,4.473,8.8,1.354,1.354,0,0,0,5.2,7.023Q3.947,3.93,2.651.856A1.3,1.3,0,0,0,1.464,0Z" transform="translate(0 5.491)" fill="#f99506" opacity="0.53"/>
            <path id="Path_3143-4" data-name="Path 3143" d="M0,7.449A1.4,1.4,0,0,0,1.079,8.89a1.371,1.371,0,0,0,1.594-.874c.644-1.53,1.272-3.067,1.907-4.6.2-.491.42-.978.609-1.475A1.377,1.377,0,0,0,4.428.1,1.363,1.363,0,0,0,2.637.887Q1.365,3.919.122,6.962A2.656,2.656,0,0,0,0,7.449Z" transform="translate(18.445 5.485)" fill="#f99506" opacity="0.61"/>
          </g>
        </g>
      </g>
    </g>
  </g>
</svg>
