<svg xmlns="http://www.w3.org/2000/svg" width="20.363" height="15.114" viewBox="0 0 20.363 15.114">
  <g id="attendance" transform="translate(-1783.18 -1318.432)">
    <path id="Path_8363" data-name="Path 8363" d="M1786.713,1332.08c-.635,0-1.256,0-1.877,0a1.557,1.557,0,0,1-1.655-1.665q0-5.144,0-10.288a1.575,1.575,0,0,1,1.7-1.695h16.956a1.576,1.576,0,0,1,1.707,1.707q0,5.133,0,10.266a1.56,1.56,0,0,1-1.668,1.674h-10.261a5.969,5.969,0,0,1-.321.641,1.676,1.676,0,0,1-1.327.791,9.69,9.69,0,0,1-1.643,0A1.8,1.8,0,0,1,1786.713,1332.08Zm4.893-.526h10.268a1.036,1.036,0,0,0,1.142-1.142q0-5.144,0-10.289a1.055,1.055,0,0,0-1.17-1.164h-16.958a1.057,1.057,0,0,0-1.18,1.175q0,3.214,0,6.428,0,1.964,0,3.927a1.015,1.015,0,0,0,.847,1.046,2.973,2.973,0,0,0,.5.018c.539,0,1.078,0,1.619,0v-.264h-.318a.791.791,0,0,1-.851-.847q0-1.031,0-2.062a.772.772,0,0,1,.826-.821c.114,0,.229,0,.342,0v-2.194h-.256a.814.814,0,0,1-.913-.922q0-1.657,0-3.313a.784.784,0,0,1,.84-.855q2.3,0,4.607,0a.774.774,0,0,1,.827.822q0,1.711,0,3.422a.8.8,0,0,1-.855.845q-1.185,0-2.369,0h-.23v.878h.246c.731,0,1.463,0,2.194,0a.767.767,0,0,1,.84.847q0,1.261,0,2.523Zm-3.292-4.775c0,.307,0,.591,0,.875,0,.431,0,.863,0,1.294a.247.247,0,0,1-.251.275c-.176.005-.264-.1-.273-.276,0-.058,0-.117,0-.175v-3.991a2.869,2.869,0,0,0-.011-.547.371.371,0,0,0-.212-.253.443.443,0,0,0-.309.126c-.045.037-.037.15-.037.228q0,3.684,0,7.369a1.287,1.287,0,0,0,1.273,1.3c.431.008.863.006,1.294,0a1.282,1.282,0,0,0,1.3-1.315q0-2.27,0-4.539c0-.336-.089-.409-.439-.348v.213q0,.921,0,1.842c0,.251-.092.376-.268.373s-.258-.125-.258-.382c0-.322,0-.643,0-.965v-1.095h-.571c0,.715,0,1.415,0,2.116,0,.21-.106.337-.27.324-.19-.016-.257-.14-.256-.318,0-.5,0-.994,0-1.491v-.636Zm0-1.94h.169q1.206,0,2.412,0c.274,0,.358-.089.359-.373q0-1.645,0-3.289c0-.3-.07-.374-.374-.374h-4.473c-.3,0-.375.072-.375.374q0,1.546,0,3.092c0,.553.033.585.58.569a.43.43,0,0,0,.078-.02c0-.2,0-.392,0-.587a.776.776,0,0,1,.81-.795.789.789,0,0,1,.812.8C1788.318,1324.428,1788.314,1324.623,1788.314,1324.839Zm-1.632,3.249c-.147,0-.27-.005-.393,0a.235.235,0,0,0-.254.244c0,.722-.009,1.444.008,2.165a.363.363,0,0,0,.215.25,1.382,1.382,0,0,0,.424.011Z" fill="#f99506"/>
    <path id="Path_8364" data-name="Path 8364" d="M1838.317,1328.84v2.089h6.781v-2.089h-4.732a1.358,1.358,0,0,1-.2,0,.261.261,0,0,1,.008-.52,1.235,1.235,0,0,1,.153,0h4.914c.33,0,.4.066.4.4q0,1.185,0,2.369c0,.306-.086.392-.389.392h-7.086c-.3,0-.379-.076-.38-.372q0-1.228,0-2.457c0-.251.077-.328.325-.33s.512,0,.768,0c.178,0,.307.07.309.262s-.127.265-.305.265Z" transform="translate(-44.424 -8.038)" fill="#f99506"/>
    <path id="Path_8365" data-name="Path 8365" d="M1854.558,1351.85c.234,0,.468,0,.7,0,.213,0,.3.1.308.311,0,.285,0,.57,0,.855,0,.229-.092.322-.317.324q-.69.006-1.381,0c-.226,0-.316-.094-.319-.322,0-.278,0-.555,0-.833,0-.243.09-.332.327-.336S1854.331,1351.85,1854.558,1351.85Zm.43.539h-.9v.41h.9Z" transform="translate(-57.249 -27.186)" fill="#f99506"/>
    <path id="Path_8366" data-name="Path 8366" d="M1870.325,1351.852c.226,0,.453,0,.679,0,.243,0,.334.09.337.327,0,.285,0,.57,0,.855,0,.213-.1.307-.31.308-.468,0-.935,0-1.4,0a.268.268,0,0,1-.3-.294c0-.3,0-.6,0-.9a.268.268,0,0,1,.3-.3C1869.858,1351.851,1870.091,1351.852,1870.325,1351.852Zm.438.537h-.9v.414h.9Z" transform="translate(-70.082 -27.188)" fill="#f99506"/>
    <path id="Path_8367" data-name="Path 8367" d="M1854.588,1362.443c.226,0,.453,0,.679,0a.268.268,0,0,1,.3.3c0,.3,0,.6,0,.9a.268.268,0,0,1-.3.293c-.468,0-.935,0-1.4,0-.213,0-.3-.1-.308-.31,0-.292-.005-.585,0-.877,0-.21.1-.3.315-.3C1854.105,1362.439,1854.346,1362.442,1854.588,1362.443Zm-.505.947h.9v-.407h-.9Z" transform="translate(-57.246 -35.804)" fill="#f99506"/>
    <path id="Path_8368" data-name="Path 8368" d="M1870.326,1363.936c-.227,0-.453,0-.68,0s-.321-.092-.324-.316c0-.292,0-.584,0-.877a.267.267,0,0,1,.3-.3c.475,0,.95,0,1.425,0a.268.268,0,0,1,.292.3c0,.292,0,.585,0,.877,0,.213-.1.3-.311.308C1870.794,1363.94,1870.56,1363.936,1870.326,1363.936Zm.433-.951h-.894v.414h.894Z" transform="translate(-70.08 -35.806)" fill="#f99506"/>
    <path id="Path_8369" data-name="Path 8369" d="M1854.583,1373.033c.227,0,.453,0,.68,0s.3.1.307.312c0,.292,0,.585,0,.877a.268.268,0,0,1-.3.3q-.713,0-1.425,0a.268.268,0,0,1-.3-.3c0-.292,0-.585,0-.877,0-.215.094-.307.307-.312C1854.1,1373.029,1854.342,1373.033,1854.583,1373.033Zm-.5.95h.895v-.412h-.895Z" transform="translate(-57.25 -44.42)" fill="#f99506"/>
    <path id="Path_8370" data-name="Path 8370" d="M1870.309,1374.524c-.227,0-.453,0-.68,0s-.307-.1-.31-.308q-.007-.439,0-.877c0-.211.1-.3.313-.3q.691-.006,1.381,0c.227,0,.319.093.322.319q.006.427,0,.855c0,.224-.1.313-.325.316S1870.542,1374.524,1870.309,1374.524Zm.448-.95h-.9v.411h.9Z" transform="translate(-70.076 -44.419)" fill="#f99506"/>
    <path id="Path_8371" data-name="Path 8371" d="M1789.356,1336.424q0,1.029,0,2.058c0,.233-.09.359-.256.364s-.27-.125-.27-.371q0-2.058,0-4.117c0-.235.089-.358.255-.363s.27.123.271.37Q1789.357,1335.395,1789.356,1336.424Z" transform="translate(-4.596 -12.662)" fill="#f99506"/>
    <path id="Path_8372" data-name="Path 8372" d="M1838.765,1353.343c-.227,0-.453,0-.679,0a.268.268,0,0,1-.3-.3q0-.449,0-.9a.261.261,0,0,1,.281-.293c.468,0,.935,0,1.4,0a.261.261,0,0,1,.289.285q.006.46,0,.921a.262.262,0,0,1-.291.284C1839.233,1353.344,1839,1353.342,1838.765,1353.343Zm.451-.536v-.412h-.893v.412Z" transform="translate(-44.423 -27.187)" fill="#f99506"/>
    <path id="Path_8373" data-name="Path 8373" d="M1838.762,1363.932c-.219,0-.439,0-.658,0s-.321-.093-.324-.317q-.006-.427,0-.855c0-.226.095-.317.322-.318q.669,0,1.337,0c.215,0,.309.094.313.305q.008.438,0,.877c0,.213-.1.3-.311.307S1838.988,1363.932,1838.762,1363.932Zm.455-.953h-.9v.41h.9Z" transform="translate(-44.418 -35.802)" fill="#f99506"/>
    <path id="Path_8374" data-name="Path 8374" d="M1838.771,1373.035c.219,0,.438,0,.657,0s.323.091.326.314c0,.292,0,.584,0,.877a.268.268,0,0,1-.3.3q-.691,0-1.381,0a.261.261,0,0,1-.293-.281c-.005-.307,0-.614,0-.921a.261.261,0,0,1,.287-.287C1838.3,1373.032,1838.537,1373.035,1838.771,1373.035Zm-.45.536v.415h.893v-.415Z" transform="translate(-44.42 -44.422)" fill="#f99506"/>
    <path id="Path_8375" data-name="Path 8375" d="M1789.5,1328.723c.009.171-.009.339-.214.364-.083.01-.241-.052-.252-.1a1.4,1.4,0,0,1-.006-.521c.01-.054.165-.123.246-.115C1789.489,1328.37,1789.5,1328.547,1789.5,1328.723Z" transform="translate(-4.737 -8.067)" fill="#f99506"/>
  </g>
</svg>
