<svg xmlns="http://www.w3.org/2000/svg" width="19.161" height="24.522" viewBox="0 0 19.161 24.522">
  <g id="employeehandbook" transform="translate(-40 -434)">
    <g id="Group_926" data-name="Group 926" transform="translate(-672.322 -841.275)">
      <path id="Path_3231" data-name="Path 3231" d="M726.745,1275.275a1.232,1.232,0,0,1,.915,1.15c.14,0,.274,0,.408,0a1.139,1.139,0,0,1,1.116,1.12c.011.758.006,1.516,0,2.274a.381.381,0,0,1-.378.434,1.05,1.05,0,0,0-.907.683,3.092,3.092,0,0,0-.229.968c-.035.724-.014,1.452-.015,2.178a.179.179,0,0,0,.015.053c.222-.114.444-.217.652-.343a.279.279,0,0,0,.093-.208c.006-.758,0-1.516,0-2.274v-.274h.766v1.173c0,.591,0,1.181,0,1.772,0,.33-.1.443-.422.49a1.038,1.038,0,0,0-.862.675,3.09,3.09,0,0,0-.233,1.015c-.027,1.38-.016,2.761-.01,4.141a.429.429,0,0,0,.126.26q.592.61,1.2,1.2a.628.628,0,0,1,.2.487q-.01,1.508,0,3.016a.793.793,0,0,0,.105.378c.679,1.146,1.366,2.286,2.051,3.427.1.16.195.316.088.511s-.3.209-.5.208q-3.292,0-6.584,0a.573.573,0,0,1-.56-.319c-.281-.491-.576-.974-.875-1.455a.355.355,0,0,0-.209-.156,2.192,2.192,0,0,1-1.933-1.891h-1.17v.728c0,.367,0,.734,0,1.1,0,.182-.042.362-.225.4a.615.615,0,0,1-.436-.071c-.427-.291-.832-.613-1.254-.929-.407.3-.8.6-1.2.9-.152.115-.3.214-.5.115s-.222-.288-.22-.488c0-.581,0-1.162,0-1.769h-2.142a1.169,1.169,0,0,1-1.306-1.318q0-4.034,0-8.068c0-3.288.011-6.575-.009-9.863a1.322,1.322,0,0,1,.918-1.438Zm-1.1,19.912c-.248-.318-.5-.608-.71-.924a.435.435,0,0,0-.421-.221q-3.914.011-7.828,0c-.406,0-.525-.12-.525-.528q0-2.143,0-4.285c0-.439.111-.55.551-.55h5.873a2.817,2.817,0,0,1,.441-1.988c.246-.394.469-.415.8-.084l2.844,2.844c.059.058.122.113.218.2v-.231q0-6.439,0-12.879c0-.383-.127-.505-.524-.505H715.64c-.077,0-.154.007-.228.01v19.135Zm-4.06.776a1.357,1.357,0,0,0,1.339,1.145.557.557,0,0,1,.539.313c.273.477.567.942.842,1.418a.337.337,0,0,0,.337.193c1.843-.007,3.685,0,5.528,0h.243c-.057-.1-.094-.18-.138-.252-.569-.95-1.145-1.9-1.7-2.853a1.091,1.091,0,0,1-.143-.514c-.014-.957-.01-1.914,0-2.871a.526.526,0,0,0-.168-.418q-2.274-2.261-4.536-4.534a1.041,1.041,0,0,1-.133-.23,1.431,1.431,0,0,0-.028,1.626c.419.677.852,1.346,1.257,2.031a1.1,1.1,0,0,1,.141.558,4.044,4.044,0,0,0,.408,1.921,3.916,3.916,0,0,0,1.625,1.7c.276.155.375.394.21.579a.616.616,0,0,1-.409.179c-1.22.014-2.441.008-3.661.008Zm-6.973-.767v-19.138a.45.45,0,0,0-.063-.014l-.861,0c-.493,0-.591.1-.591.582v18c0,.063,0,.128,0,.191a.373.373,0,0,0,.381.38C713.853,1295.2,714.226,1295.195,714.612,1295.195Zm9.83-1.92a4.781,4.781,0,0,1-.246-1.742.21.21,0,0,0-.024-.114c-.369-.606-.741-1.209-1.109-1.815a.342.342,0,0,0-.341-.157q-2.776.006-5.553,0c-.076,0-.153.007-.221.01v3.815Zm3.22-13.348c.235-.12.455-.226.666-.347a.221.221,0,0,0,.089-.164c.006-.606.005-1.212,0-1.817a.368.368,0,0,0-.333-.4,2.864,2.864,0,0,0-.425,0Zm-8.829,16.051h-2.268v1.118l.809-.6c.266-.2.371-.2.638,0s.53.394.82.61Z" transform="translate(0 0)" fill="#f99506"/>
      <path id="Path_3232" data-name="Path 3232" d="M737.164,1282.138a4.213,4.213,0,1,1-4.223,4.233A4.218,4.218,0,0,1,737.164,1282.138Zm0,.765a3.447,3.447,0,1,0,3.434,3.425A3.452,3.452,0,0,0,737.168,1282.9Z" transform="translate(-16.013 -5.33)" fill="#f99506"/>
      <path id="Path_3233" data-name="Path 3233" d="M742.526,1349.083v.736h-6.108v-.736Z" transform="translate(-18.713 -57.318)" fill="#f99506"/>
      <path id="Path_3234" data-name="Path 3234" d="M743.272,1342.942v-.737h3.809v.737Z" transform="translate(-24.035 -51.976)" fill="#f99506"/>
      <path id="Path_3235" data-name="Path 3235" d="M737.158,1342.966h-.739v-.737h.739Z" transform="translate(-18.713 -51.995)" fill="#f99506"/>
      <path id="Path_3236" data-name="Path 3236" d="M741.325,1292.819c-.369,0-.71,0-1.051,0s-.479-.134-.481-.476q0-.67,0-1.34c0-.347.133-.48.474-.482s.684,0,1.058,0c0-.353,0-.693,0-1.033,0-.373.128-.5.5-.5.447,0,.893,0,1.34,0,.312,0,.45.142.453.455,0,.349,0,.7,0,1.076.358,0,.7,0,1.038,0,.361,0,.493.131.494.487q0,.658,0,1.316c0,.361-.131.493-.486.5s-.682,0-1.046,0c0,.363,0,.7,0,1.044,0,.357-.133.486-.494.488-.447,0-.893,0-1.34,0-.327,0-.462-.139-.464-.468S741.325,1293.2,741.325,1292.819Zm.766-3.054c0,.353,0,.686,0,1.019,0,.374-.128.5-.5.5-.339,0-.678,0-1.01,0v.766c.354,0,.688,0,1.023,0,.359,0,.488.131.489.491,0,.34,0,.68,0,1.026h.766c0-.349,0-.682,0-1.015,0-.375.127-.5.5-.5h1.011v-.766c-.354,0-.688,0-1.023,0-.359,0-.488-.131-.49-.49,0-.34,0-.681,0-1.031Z" transform="translate(-21.333 -10.648)" fill="#f99506"/>
    </g>
  </g>
</svg>
