<svg xmlns="http://www.w3.org/2000/svg" width="60" height="60" viewBox="0 0 60 60">
  <g id="fajr" transform="translate(-492 -768)">
    <g id="Ellipse_12" data-name="Ellipse 12" transform="translate(492 768)" fill="none" stroke="#f99506" stroke-width="2">
      <circle cx="30" cy="30" r="30" stroke="none"/>
      <circle cx="30" cy="30" r="29" fill="none"/>
    </g>
    <g id="Group_856" data-name="Group 856" transform="translate(503 787)">
      <path id="Path_3138" data-name="Path 3138" d="M1262.377,397.165q8.747,0,17.494,0a1.511,1.511,0,0,1,1.683,1.7,1.487,1.487,0,0,1-1.389,1.267c-.241.017-.484.007-.727.007l-34.358,0c-.146,0-.292.006-.436,0a1.5,1.5,0,0,1-1.434-1.483,1.474,1.474,0,0,1,1.479-1.48c.921-.017,1.842-.006,2.762-.006h14.926Z" transform="translate(-1243.21 -378.549)" fill="#f99506"/>
      <g id="Group_857" data-name="Group 857" transform="translate(7.375 0)">
        <path id="Path_3141" data-name="Path 3141" d="M1426.868,199.216c0-1.809-.006-3.617,0-5.426a1.335,1.335,0,0,1,.915-1.294,1.3,1.3,0,0,1,1.486.408,1.749,1.749,0,0,1,.333.927q.034,5.4.01,10.8a1.374,1.374,0,1,1-2.746-.04C1426.86,202.8,1426.867,201.008,1426.868,199.216Z" transform="translate(-1417.031 -192.415)" fill="#f99506"/>
        <path id="Path_3142" data-name="Path 3142" d="M1471.8,249.065a1.386,1.386,0,0,1,1.345,1.958c-.682,1.689-1.39,3.368-2.087,5.051-.148.357-.285.72-.448,1.07a1.374,1.374,0,0,1-1.819.723,1.354,1.354,0,0,1-.726-1.778q1.252-3.093,2.548-6.168A1.3,1.3,0,0,1,1471.8,249.065Z" transform="translate(-1449.521 -243.574)" fill="#f99506"/>
        <path id="Path_3143" data-name="Path 3143" d="M1364.78,256.449a1.4,1.4,0,0,1-1.079,1.441,1.371,1.371,0,0,1-1.594-.874c-.644-1.53-1.272-3.067-1.907-4.6-.2-.491-.42-.978-.609-1.475a1.377,1.377,0,0,1,.761-1.839,1.363,1.363,0,0,1,1.791.786q1.272,3.032,2.515,6.075A2.656,2.656,0,0,1,1364.78,256.449Z" transform="translate(-1359.482 -243.515)" fill="#f99506"/>
      </g>
    </g>
  </g>
</svg>
