<svg xmlns="http://www.w3.org/2000/svg" width="19.014" height="16.633" viewBox="0 0 19.014 16.633">
  <g id="feedback" transform="translate(-40 -388)">
    <g id="Group_925" data-name="Group 925" transform="translate(237.958 -769.792)">
      <path id="Path_3224" data-name="Path 3224" d="M-104.7,1230.965a1.176,1.176,0,0,1-.635.863,1.811,1.811,0,0,1-.678.143c-1.689.012-3.379.008-5.068,0a.41.41,0,0,0-.323.136c-.42.429-.847.851-1.272,1.275a.428.428,0,0,1-.446.158.415.415,0,0,1-.3-.458c0-.358,0-.717,0-1.107h-.226q-2.413,0-4.827,0a1.181,1.181,0,0,1-1.243-.9.43.43,0,0,1-.023-.108c0-.445,0-.89,0-1.35h.777v.86c0,.648.063.711.711.711h5.087c.408,0,.542.135.543.547,0,.14,0,.28,0,.42l.045.026c.235-.241.479-.474.7-.724a.8.8,0,0,1,.654-.273c1.726.009,3.453,0,5.18,0,.411,0,.548-.135.548-.542q0-4.6,0-9.208c0-.415-.13-.546-.54-.547h-1.825v-.769c.018-.011.028-.022.039-.022.668,0,1.337-.018,2,.012a1.124,1.124,0,0,1,1.076.893.672.672,0,0,0,.037.082Z" transform="translate(-74.246 -59.135)" fill="#f99506"/>
      <path id="Path_3225" data-name="Path 3225" d="M-191.227,1169.676h-5.4a1.208,1.208,0,0,1-1.329-1.337q0-4.6,0-9.209a1.208,1.208,0,0,1,1.33-1.337h12.421a1.185,1.185,0,0,1,1.259.906,1.642,1.642,0,0,1,.038.4q0,4.633,0,9.265a1.2,1.2,0,0,1-1.318,1.309q-2.34,0-4.679,0a.37.37,0,0,0-.293.118c-.425.433-.851.865-1.29,1.283a.637.637,0,0,1-.369.169c-.228.013-.366-.177-.369-.462C-191.23,1170.423-191.227,1170.064-191.227,1169.676Zm.8.169.048.022c.247-.25.5-.5.738-.753a.7.7,0,0,1,.558-.231c1.609.006,3.218,0,4.827,0,.433,0,.56-.129.56-.567q0-4.577,0-9.153c0-.464-.119-.584-.58-.584h-12.31c-.462,0-.582.121-.582.585q0,4.567,0,9.135a1.59,1.59,0,0,0,.02.258.347.347,0,0,0,.3.306,1.468,1.468,0,0,0,.258.021h5.626c.4,0,.531.136.533.536C-190.428,1169.563-190.429,1169.7-190.429,1169.845Z" fill="#f99506"/>
      <path id="Path_3226" data-name="Path 3226" d="M-158.831,1267.831v-.771h11.071v.771Z" transform="translate(-37.138 -103.712)" fill="#f99506"/>
      <path id="Path_3227" data-name="Path 3227" d="M-147.735,1313.838v.773h-11.071v-.773Z" transform="translate(-37.162 -148.113)" fill="#f99506"/>
      <path id="Path_3228" data-name="Path 3228" d="M-154.431,1220.377v.77h-4.337v-.77Z" transform="translate(-37.198 -59.403)" fill="#f99506"/>
      <path id="Path_3229" data-name="Path 3229" d="M13.468,1221.075h-.762v-.777h.762Z" transform="translate(-199.954 -59.329)" fill="#f99506"/>
      <path id="Path_3230" data-name="Path 3230" d="M43.906,1220.26h.76v.776h-.76Z" transform="translate(-229.568 -59.292)" fill="#f99506"/>
    </g>
  </g>
</svg>
