<svg xmlns="http://www.w3.org/2000/svg" width="60" height="60" viewBox="0 0 60 60">
  <g id="isha" transform="translate(-1261 -765)">
    <g id="Group_874" data-name="Group 874">
      <g id="Group_866" data-name="Group 866" transform="translate(624)">
        <g id="Ellipse_12" data-name="Ellipse 12" transform="translate(637 765)" fill="none" stroke="#f99506" stroke-width="2">
          <circle cx="30" cy="30" r="30" stroke="none"/>
          <circle cx="30" cy="30" r="29" fill="none"/>
        </g>
      </g>
      <g id="Group_873" data-name="Group 873" transform="translate(-743.666 1468.383)">
        <path id="Path_3151" data-name="Path 3151" d="M2225.424-663.886c-1.261-.916-2.461-1.776-3.646-2.656a.43.43,0,0,0-.623-.011c-1.1.829-2.229,1.631-3.347,2.443-.085.062-.173.121-.317.221.279-.863.538-1.666.8-2.468.209-.646.411-1.3.635-1.937a.31.31,0,0,0-.14-.42c-1.13-.812-2.253-1.634-3.379-2.452-.094-.068-.186-.138-.329-.245.142-.011.228-.024.315-.024,1.382,0,2.763-.01,4.145.005a.455.455,0,0,0,.534-.376c.417-1.349.866-2.688,1.3-4.03.019-.059.041-.117.089-.255.176.532.331.993.482,1.456.316.969.637,1.937.939,2.91a.347.347,0,0,0,.4.294c1.381-.012,2.763-.006,4.145-.006h.433c-.146.117-.227.189-.314.253-1.108.807-2.211,1.62-3.331,2.411a.414.414,0,0,0-.191.565c.442,1.307.861,2.623,1.288,3.935C2225.343-664.174,2225.369-664.073,2225.424-663.886Z" transform="translate(-182.946 -11.507)" fill="#f99506"/>
        <path id="Path_3152" data-name="Path 3152" d="M2402.869-462.135c.225.694.441,1.312.623,1.941a.443.443,0,0,0,.523.39c.646-.029,1.293-.009,2.009-.009-.1.089-.146.145-.2.188-.5.37-1.008.743-1.52,1.1a.286.286,0,0,0-.132.391c.2.57.38,1.148.565,1.723.032.1.056.2.1.351l-1.962-1.42-1.979,1.432c.242-.746.447-1.4.672-2.049a.321.321,0,0,0-.139-.445,18.147,18.147,0,0,1-1.655-1.276h1.731c.616,0,.615,0,.808-.595C2402.484-460.961,2402.666-461.513,2402.869-462.135Z" transform="translate(-355.858 -211.818)" fill="#f99506"/>
        <path id="Path_3153" data-name="Path 3153" d="M2031.083-688.383s-9.38,7.768-3.078,19.2a15.438,15.438,0,0,0,16.317,6.937s-13.438,10.4-22.731-4.559a12.614,12.614,0,0,1-1.87-5.668C2019.366-677.024,2020.449-684.883,2031.083-688.383Z" transform="translate(0 0)" fill="#f99506"/>
      </g>
    </g>
  </g>
</svg>
