<svg xmlns="http://www.w3.org/2000/svg" width="76.443" height="54.135" viewBox="0 0 76.443 54.135">
  <g id="logo" transform="translate(-90.913 -179.967)">
    <g id="Group_3" data-name="Group 3" transform="translate(90.913 179.967)">
      <g id="Group_1" data-name="Group 1" transform="translate(43.112 11.501)">
        <path id="Path_1" data-name="Path 1" d="M-1857.6-632.454h-21.994a11.061,11.061,0,0,0-3.512.547c-3.1,1.036-8.054,3.97-7.817,12.121a7.979,7.979,0,0,0,3.49,6.076,4.357,4.357,0,0,0,2.172.666h9.968s.3-5.425-4.766-7.186l12.754.444S-1857.855-618.8-1857.6-632.454Z" transform="translate(1890.928 632.454)" fill="#fff"/>
        <path id="Path_2" data-name="Path 2" d="M-1890.929-527.856h21.655a12.324,12.324,0,0,0,5.716-1.338c2.888-1.509,6.146-4.687,5.952-11.33a7.977,7.977,0,0,0-3.49-6.076,4.357,4.357,0,0,0-2.172-.666h-9.969a7.87,7.87,0,0,0,5.2,6.94l-13.191-.2S-1890.671-541.512-1890.929-527.856Z" transform="translate(1890.929 561.596)" fill="#fff"/>
      </g>
      <g id="Group_2" data-name="Group 2">
        <rect id="Rectangle_1" data-name="Rectangle 1" width="6.563" height="4.724" rx="0.755" transform="translate(34.218 19.183) rotate(1.25)" fill="#fff"/>
        <path id="Path_3" data-name="Path 3" d="M-2106.47-672.131l-.31,10.872a5.355,5.355,0,0,1-3.1,5.288,3.248,3.248,0,0,1-1.46.336l-31.062.054a5.359,5.359,0,0,1-3.169-.969,4.126,4.126,0,0,1-1.379-4.857,7.83,7.83,0,0,1,2.133-3.391l36.666-35,.067-.067.787-.821a.472.472,0,0,1,.807.336l-.162,9.365a1.34,1.34,0,0,1-.4.935l-24.57,24.42a.486.486,0,0,0,.342.831l16.66.041a1.345,1.345,0,0,0,1.347-1.287l.234-5.477.007-.182.04-1.817a.723.723,0,0,1,.747-.7l5.1.134a.727.727,0,0,1,.707.74l-.034,1.137A.27.27,0,0,1-2106.47-672.131Z" transform="translate(2147.212 700.825)" fill="#fff"/>
      </g>
    </g>
    <text id="WE_VALUE_YOUR_TIME" data-name="WE VALUE YOUR TIME" transform="translate(101.913 232.102)" fill="#fff" font-size="5" font-family="Nunito-SemiBold, Nunito" font-weight="600"><tspan x="0" y="0">WE VALUE YOUR TIME</tspan></text>
  </g>
</svg>
