<svg xmlns="http://www.w3.org/2000/svg" width="60" height="60" viewBox="0 0 60 60">
  <g id="maghrib" transform="translate(-845 -765)">
    <g id="Group_868" data-name="Group 868" transform="translate(208)">
      <g id="Group_866" data-name="Group 866">
        <g id="Ellipse_12" data-name="Ellipse 12" transform="translate(637 765)" fill="none" stroke="#f99506" stroke-width="2">
          <circle cx="30" cy="30" r="30" stroke="none"/>
          <circle cx="30" cy="30" r="29" fill="none"/>
        </g>
      </g>
    </g>
    <g id="Group_870" data-name="Group 870" transform="translate(0 6)">
      <g id="Group_865" data-name="Group 865" transform="translate(207.194 1)">
        <g id="Group_864" data-name="Group 864" transform="translate(0.165)">
          <g id="Group_857" data-name="Group 857" transform="translate(656 776)">
            <path id="Path_3141" data-name="Path 3141" d="M1426.868,199.216c0-1.809-.006-3.617,0-5.426a1.335,1.335,0,0,1,.915-1.294,1.3,1.3,0,0,1,1.486.408,1.749,1.749,0,0,1,.333.927q.034,5.4.01,10.8a1.374,1.374,0,1,1-2.746-.04C1426.86,202.8,1426.867,201.008,1426.868,199.216Z" transform="translate(-1417.031 -192.415)" fill="#f99506" opacity="0.49"/>
            <path id="Path_3142" data-name="Path 3142" d="M1471.8,249.065a1.386,1.386,0,0,1,1.345,1.958c-.682,1.689-1.39,3.368-2.087,5.051-.148.357-.285.72-.448,1.07a1.374,1.374,0,0,1-1.819.723,1.354,1.354,0,0,1-.726-1.778q1.252-3.093,2.548-6.168A1.3,1.3,0,0,1,1471.8,249.065Z" transform="translate(-1449.521 -243.574)" fill="#f99506"/>
            <path id="Path_3143" data-name="Path 3143" d="M1364.78,256.449a1.4,1.4,0,0,1-1.079,1.441,1.371,1.371,0,0,1-1.594-.874c-.644-1.53-1.272-3.067-1.907-4.6-.2-.491-.42-.978-.609-1.475a1.377,1.377,0,0,1,.761-1.839,1.363,1.363,0,0,1,1.791.786q1.272,3.032,2.515,6.075A2.656,2.656,0,0,1,1364.78,256.449Z" transform="translate(-1359.482 -243.515)" fill="#f99506"/>
          </g>
          <g id="Group_862" data-name="Group 862" transform="translate(679.25 811.996) rotate(-91)">
            <path id="Path_3143-2" data-name="Path 3143" d="M1359.482,250.476a1.4,1.4,0,0,1,1.079-1.441,1.371,1.371,0,0,1,1.594.874c.644,1.53,1.272,3.067,1.907,4.6.2.491.42.978.609,1.475a1.377,1.377,0,0,1-.761,1.839,1.363,1.363,0,0,1-1.791-.786q-1.272-3.032-2.515-6.075A2.656,2.656,0,0,1,1359.482,250.476Z" transform="translate(-1341.036 -249)" fill="#f99506" opacity="0.58"/>
          </g>
          <g id="Group_863" data-name="Group 863" transform="matrix(0.017, -1, 1, 0.017, 642.835, 811.744)">
            <path id="Path_3143-3" data-name="Path 3143" d="M0,7.449A1.4,1.4,0,0,0,1.079,8.89a1.371,1.371,0,0,0,1.594-.874c.644-1.53,1.272-3.067,1.907-4.6.2-.491.42-.978.609-1.475A1.377,1.377,0,0,0,4.428.1,1.363,1.363,0,0,0,2.637.887Q1.365,3.919.122,6.962A2.656,2.656,0,0,0,0,7.449Z" transform="translate(18.445 5.485)" fill="#f99506" opacity="0.61"/>
          </g>
        </g>
      </g>
      <path id="Path_3150" data-name="Path 3150" d="M1264.326,397.165q9.637,0,19.273,0a1.665,1.665,0,0,1,1.854,1.877,1.639,1.639,0,0,1-1.531,1.4c-.266.019-.534.008-.8.008l-37.852,0c-.16,0-.321.006-.48,0a1.647,1.647,0,0,1-1.58-1.634,1.624,1.624,0,0,1,1.63-1.631c1.014-.019,2.029-.007,3.043-.007h16.443Z" transform="translate(-389.21 399.835)" fill="#f99506"/>
    </g>
  </g>
</svg>
