<svg xmlns="http://www.w3.org/2000/svg" width="19.94" height="19.969" viewBox="0 0 19.94 19.969">
  <g id="request" transform="translate(-40 -183)">
    <path id="Path_3155" data-name="Path 3155" d="M2566.931-969.946h.742c.24.153.49.292.717.463.479.359.942.74,1.421,1.1a.631.631,0,0,0,.35.121c1.511.008,3.022,0,4.532.006a.655.655,0,0,1,.754.752c0,1.113,0,2.227,0,3.341a.34.34,0,0,0,.148.31c.354.266.7.541,1.049.815a1.618,1.618,0,0,1,.652,1.35q-.01,5.343,0,10.687a.913.913,0,0,1-1.035,1.027H2558.4a.921.921,0,0,1-1.042-1.043c0-3.543,0-7.085,0-10.628a1.682,1.682,0,0,1,.7-1.429c.342-.26.674-.533,1.016-.792a.307.307,0,0,0,.135-.277c-.005-1.114,0-2.227,0-3.341,0-.538.235-.771.776-.771,1.387,0,2.775-.013,4.162.008a1.387,1.387,0,0,0,.95-.331C2565.685-969.056,2566.314-969.493,2566.931-969.946Zm9.761,8.113c-.071.051-.122.086-.171.124l-5.664,4.425a1.254,1.254,0,0,1-.175.123.269.269,0,0,1-.353-.069.26.26,0,0,1-.008-.357.9.9,0,0,1,.157-.144q2.115-1.655,4.233-3.306a.347.347,0,0,0,.154-.307q-.008-3.047,0-6.1c0-.19-.053-.237-.239-.236q-7.307.008-14.613,0c-.193,0-.235.059-.234.242q.01,3.038,0,6.076a.363.363,0,0,0,.154.327q2.1,1.638,4.2,3.286a1.143,1.143,0,0,1,.161.142.266.266,0,0,1,.009.373.271.271,0,0,1-.369.064,1.131,1.131,0,0,1-.142-.1l-5.411-4.241c-.136-.107-.273-.212-.424-.328v10.87c.07-.056.12-.095.17-.135q3.869-3.213,7.74-6.425a2.613,2.613,0,0,1,.528-.364,2.033,2.033,0,0,1,2.339.331l7.026,5.878.93.775Zm-.53,11.261c-.062-.058-.1-.093-.135-.125q-3.835-3.208-7.67-6.416a1.479,1.479,0,0,0-2.084.007l-7.136,5.927-.727.607Zm-10.539-17.7H2569c-.473-.363-.9-.707-1.34-1.022a.594.594,0,0,0-.7,0C2566.516-968.98,2566.093-968.636,2565.624-968.274Zm9.833,6.65,1.022-.8-1.022-.8Zm-16.272,0v-1.6l-1.014.8Z" transform="translate(-2517.353 1152.946)" fill="#f99506"/>
    <path id="Path_3156" data-name="Path 3156" d="M2687.147-896.007a3.941,3.941,0,0,1-3.925,3.928,3.937,3.937,0,0,1-3.923-3.929,3.924,3.924,0,0,1,3.923-3.922A3.928,3.928,0,0,1,2687.147-896.007Zm-.586,0a3.339,3.339,0,0,0-3.323-3.338,3.334,3.334,0,0,0-3.353,3.324,3.35,3.35,0,0,0,3.33,3.354A3.353,3.353,0,0,0,2686.561-896.005Z" transform="translate(-2633.251 1086.402)" fill="#f99506"/>
    <path id="Path_3157" data-name="Path 3157" d="M2736.61-866.6a4.1,4.1,0,0,1,.715.229.968.968,0,0,1,.175,1.541,4.85,4.85,0,0,1-.4.4.766.766,0,0,0-.26.606c0,.257-.077.341-.293.337-.192,0-.257-.1-.257-.354a1.145,1.145,0,0,1,.462-.984,1.8,1.8,0,0,0,.23-.21.563.563,0,0,0,.073-.8.736.736,0,0,0-.914.015,1.423,1.423,0,0,0-.1.117.239.239,0,0,1-.329.069.24.24,0,0,1-.123-.33.864.864,0,0,1,.3-.367A5.015,5.015,0,0,1,2736.61-866.6Z" transform="translate(-2686.717 1054.721)" fill="#f99506"/>
    <path id="Path_3158" data-name="Path 3158" d="M2748.8-795.021a.385.385,0,0,1-.375.39.379.379,0,0,1-.388-.376.385.385,0,0,1,.374-.392A.391.391,0,0,1,2748.8-795.021Z" transform="translate(-2698.581 987.056)" fill="#f99506"/>
  </g>
</svg>
