<svg xmlns="http://www.w3.org/2000/svg" width="60" height="60" viewBox="0 0 60 60">
  <g id="zuhr" transform="translate(-637 -765)">
    <g id="Path_3154" data-name="Path 3154" transform="translate(637 765)" fill="none">
      <path d="M30,0A30,30,0,1,1,0,30,30,30,0,0,1,30,0Z" stroke="none"/>
      <path d="M 30 2 C 26.21913909912109 2 22.55244064331055 2.740039825439453 19.10174942016602 4.199558258056641 C 15.76776885986328 5.609710693359375 12.77312850952148 7.628890991210938 10.20101165771484 10.20101165771484 C 7.628890991210938 12.77312850952148 5.609710693359375 15.76776885986328 4.199558258056641 19.10174942016602 C 2.740039825439453 22.55244064331055 2 26.21913909912109 2 30 C 2 33.78086090087891 2.740039825439453 37.44755935668945 4.199558258056641 40.89825057983398 C 5.609710693359375 44.23223114013672 7.628890991210938 47.22686767578125 10.20101165771484 49.79898834228516 C 12.77312850952148 52.37110900878906 15.76776885986328 54.39028930664062 19.10174942016602 55.80043792724609 C 22.55244064331055 57.25996017456055 26.21913909912109 58 30 58 C 33.78086090087891 58 37.44755935668945 57.25996017456055 40.89825057983398 55.80043792724609 C 44.23223114013672 54.39028930664062 47.22686767578125 52.37110900878906 49.79898834228516 49.79898834228516 C 52.37110900878906 47.22686767578125 54.39028930664062 44.23223114013672 55.80043792724609 40.89825057983398 C 57.25996017456055 37.44755935668945 58 33.78086090087891 58 30 C 58 26.21913909912109 57.25996017456055 22.55244064331055 55.80043792724609 19.10174942016602 C 54.39028930664062 15.76776885986328 52.37110900878906 12.77312850952148 49.79898834228516 10.20101165771484 C 47.22686767578125 7.628890991210938 44.23223114013672 5.609710693359375 40.89825057983398 4.199558258056641 C 37.44755935668945 2.740039825439453 33.78086090087891 2 30 2 M 30 0 C 46.56853866577148 0 60 13.43146133422852 60 30 C 60 46.56853866577148 46.56853866577148 60 30 60 C 13.43146133422852 60 0 46.56853866577148 0 30 C 0 13.43146133422852 13.43146133422852 0 30 0 Z" stroke="none" fill="#fdfdfd"/>
    </g>
    <g id="Group_865" data-name="Group 865" transform="translate(-1 -5)">
      <g id="Ellipse_13" data-name="Ellipse 13" transform="translate(660 792)" fill="none" stroke="#fdfdfd" stroke-width="2">
        <circle cx="8" cy="8" r="8" stroke="none"/>
        <circle cx="8" cy="8" r="7" fill="none"/>
      </g>
      <g id="Group_864" data-name="Group 864" transform="translate(0.165)">
        <g id="Group_857" data-name="Group 857" transform="translate(656 776)">
          <path id="Path_3141" data-name="Path 3141" d="M1426.868,199.216c0-1.809-.006-3.617,0-5.426a1.335,1.335,0,0,1,.915-1.294,1.3,1.3,0,0,1,1.486.408,1.749,1.749,0,0,1,.333.927q.034,5.4.01,10.8a1.374,1.374,0,1,1-2.746-.04C1426.86,202.8,1426.867,201.008,1426.868,199.216Z" transform="translate(-1417.031 -192.415)" fill="#fff"/>
          <path id="Path_3142" data-name="Path 3142" d="M1471.8,249.065a1.386,1.386,0,0,1,1.345,1.958c-.682,1.689-1.39,3.368-2.087,5.051-.148.357-.285.72-.448,1.07a1.374,1.374,0,0,1-1.819.723,1.354,1.354,0,0,1-.726-1.778q1.252-3.093,2.548-6.168A1.3,1.3,0,0,1,1471.8,249.065Z" transform="translate(-1449.521 -243.574)" fill="#fff"/>
          <path id="Path_3143" data-name="Path 3143" d="M1364.78,256.449a1.4,1.4,0,0,1-1.079,1.441,1.371,1.371,0,0,1-1.594-.874c-.644-1.53-1.272-3.067-1.907-4.6-.2-.491-.42-.978-.609-1.475a1.377,1.377,0,0,1,.761-1.839,1.363,1.363,0,0,1,1.791.786q1.272,3.032,2.515,6.075A2.656,2.656,0,0,1,1364.78,256.449Z" transform="translate(-1359.482 -243.515)" fill="#fff"/>
        </g>
        <g id="Group_861" data-name="Group 861" transform="translate(656 810)">
          <path id="Path_3141-2" data-name="Path 3141" d="M1426.868,199.228c0,1.809-.006,3.617,0,5.426a1.335,1.335,0,0,0,.915,1.294,1.3,1.3,0,0,0,1.486-.408,1.749,1.749,0,0,0,.333-.927q.034-5.4.01-10.8a1.374,1.374,0,1,0-2.746.04C1426.86,195.643,1426.867,197.436,1426.868,199.228Z" transform="translate(-1417.031 -191.619)" fill="#fff"/>
          <path id="Path_3142-2" data-name="Path 3142" d="M1471.8,257.984a1.386,1.386,0,0,0,1.345-1.958c-.682-1.689-1.39-3.368-2.087-5.051-.148-.357-.285-.72-.448-1.07a1.374,1.374,0,0,0-1.819-.723,1.354,1.354,0,0,0-.726,1.778q1.252,3.093,2.548,6.168A1.3,1.3,0,0,0,1471.8,257.984Z" transform="translate(-1449.521 -249.065)" fill="#fff"/>
          <path id="Path_3143-2" data-name="Path 3143" d="M1364.78,250.476a1.4,1.4,0,0,0-1.079-1.441,1.371,1.371,0,0,0-1.594.874c-.644,1.53-1.272,3.067-1.907,4.6-.2.491-.42.978-.609,1.475a1.377,1.377,0,0,0,.761,1.839,1.363,1.363,0,0,0,1.791-.786q1.272-3.032,2.515-6.075A2.656,2.656,0,0,0,1364.78,250.476Z" transform="translate(-1359.482 -249)" fill="#fff"/>
        </g>
        <g id="Group_862" data-name="Group 862" transform="translate(679.25 811.996) rotate(-91)">
          <path id="Path_3141-3" data-name="Path 3141" d="M1429.621,199.228c0,1.809.006,3.617,0,5.426a1.335,1.335,0,0,1-.915,1.294,1.3,1.3,0,0,1-1.486-.408,1.749,1.749,0,0,1-.333-.927q-.034-5.4-.01-10.8a1.374,1.374,0,1,1,2.746.04C1429.63,195.643,1429.622,197.436,1429.621,199.228Z" transform="translate(-1415.715 -191.619)" fill="#fff"/>
          <path id="Path_3142-3" data-name="Path 3142" d="M1469.423,257.984a1.386,1.386,0,0,1-1.345-1.958c.682-1.689,1.39-3.368,2.087-5.051.148-.357.285-.72.448-1.07a1.374,1.374,0,0,1,1.819-.723,1.354,1.354,0,0,1,.726,1.778q-1.252,3.093-2.548,6.168A1.3,1.3,0,0,1,1469.423,257.984Z" transform="translate(-1467.959 -249.065)" fill="#fff"/>
          <path id="Path_3143-3" data-name="Path 3143" d="M1359.482,250.476a1.4,1.4,0,0,1,1.079-1.441,1.371,1.371,0,0,1,1.594.874c.644,1.53,1.272,3.067,1.907,4.6.2.491.42.978.609,1.475a1.377,1.377,0,0,1-.761,1.839,1.363,1.363,0,0,1-1.791-.786q-1.272-3.032-2.515-6.075A2.656,2.656,0,0,1,1359.482,250.476Z" transform="translate(-1341.036 -249)" fill="#fff"/>
        </g>
        <g id="Group_863" data-name="Group 863" transform="matrix(0.017, -1, 1, 0.017, 642.835, 811.744)">
          <path id="Path_3141-4" data-name="Path 3141" d="M2.757,6.8c0-1.809.006-3.617,0-5.426A1.335,1.335,0,0,0,1.837.08,1.3,1.3,0,0,0,.351.488a1.749,1.749,0,0,0-.333.927q-.034,5.4-.01,10.8a1.348,1.348,0,0,0,1.37,1.4,1.36,1.36,0,0,0,1.376-1.436C2.765,10.386,2.758,8.593,2.757,6.8Z" transform="translate(11.15 0)" fill="#fff"/>
          <path id="Path_3142-4" data-name="Path 3142" d="M1.464,0A1.386,1.386,0,0,0,.119,1.958C.8,3.647,1.508,5.325,2.206,7.008c.148.357.285.72.448,1.07A1.374,1.374,0,0,0,4.473,8.8,1.354,1.354,0,0,0,5.2,7.023Q3.947,3.93,2.651.856A1.3,1.3,0,0,0,1.464,0Z" transform="translate(0 5.491)" fill="#fff"/>
          <path id="Path_3143-4" data-name="Path 3143" d="M0,7.449A1.4,1.4,0,0,0,1.079,8.89a1.371,1.371,0,0,0,1.594-.874c.644-1.53,1.272-3.067,1.907-4.6.2-.491.42-.978.609-1.475A1.377,1.377,0,0,0,4.428.1,1.363,1.363,0,0,0,2.637.887Q1.365,3.919.122,6.962A2.656,2.656,0,0,0,0,7.449Z" transform="translate(18.445 5.485)" fill="#fff"/>
        </g>
      </g>
    </g>
  </g>
</svg>
