<svg xmlns="http://www.w3.org/2000/svg" width="36.566" height="30.003" viewBox="0 0 36.566 30.003">
  <g id="email" transform="translate(-358.922 -601.391)">
    <path id="Path_8349" data-name="Path 8349" d="M358.922,702.235a.96.96,0,0,1,.97-.508c1.26.022,2.52.007,3.78.008.523,0,.851.268.862.7s-.325.731-.862.732c-1.26,0-2.52-.014-3.78.008a.963.963,0,0,1-.97-.508Z" transform="translate(0 -85.485)" fill="#f99506"/>
    <path id="Path_8350" data-name="Path 8350" d="M358.922,651.575a.945.945,0,0,1,.967-.507c.639.028,1.281,0,1.921.008a.72.72,0,1,1,0,1.426c-.64,0-1.282-.02-1.921.008a.945.945,0,0,1-.967-.507Z" transform="translate(0 -42.323)" fill="#f99506"/>
    <path id="Path_8351" data-name="Path 8351" d="M416.253,604.027c-.01.176-.022.288-.022.4q0,5.961,0,11.922a1.886,1.886,0,0,0,1.348,1.99,2.3,2.3,0,0,0,.633.081q6.032.007,12.065,0c.093,0,.186-.011.356-.021-.127-.133-.209-.224-.3-.311l-4.744-4.746a2.264,2.264,0,0,1-.264-.289.691.691,0,0,1,.092-.91.719.719,0,0,1,.889-.074,2.237,2.237,0,0,1,.289.265l6.26,6.259c.54.54.542.848.01,1.38L421.838,631c-.52.52-.835.519-1.354,0L403.649,614.17c-.518-.518-.516-.831.006-1.354l11.03-11.029c.524-.524.838-.527,1.354-.012q3.055,3.053,6.107,6.109a1.878,1.878,0,0,1,.278.323.69.69,0,0,1-.128.877.715.715,0,0,1-.888.055,2.479,2.479,0,0,1-.287-.266l-4.543-4.543C416.489,604.242,416.394,604.159,416.253,604.027Zm-10.414,10.2,14.585,14.584v-8.961h-.412c-.7,0-1.405.019-2.106-.017a3.154,3.154,0,0,1-2.985-2.524,18.125,18.125,0,0,1-.119-2.594c-.006-.161,0-.323,0-.488Zm8.94-10.378-8.91,8.907h8.91Zm7.123,24.985,8.956-8.956H421.9Z" transform="translate(-37.777)" fill="#f99506"/>
    <path id="Path_8352" data-name="Path 8352" d="M377.744,759.177c1.616,0,3.233-.007,4.849.008a.888.888,0,0,1,.611.2,1.048,1.048,0,0,1,.209.7.61.61,0,0,1-.566.514,1.587,1.587,0,0,1-.284.011h-9.7c-.048,0-.1,0-.143,0a.724.724,0,0,1-.757-.729.714.714,0,0,1,.751-.7c.5-.009,1,0,1.5,0Z" transform="translate(-11.113 -134.43)" fill="#f99506"/>
    <path id="Path_8353" data-name="Path 8353" d="M394.59,728.307c.629,0,1.258,0,1.887,0a.717.717,0,1,1,0,1.425q-1.9.007-3.81,0a.718.718,0,1,1,0-1.425C393.308,728.3,393.949,728.307,394.59,728.307Z" transform="translate(-28.062 -108.13)" fill="#f99506"/>
    <path id="Path_8354" data-name="Path 8354" d="M392.268,651.115c.427,0,.854-.006,1.282,0a.714.714,0,1,1-.012,1.424q-1.282.01-2.563,0a.715.715,0,1,1,.012-1.425C391.413,651.111,391.84,651.115,392.268,651.115Z" transform="translate(-26.648 -42.363)" fill="#f99506"/>
    <path id="Path_8355" data-name="Path 8355" d="M402.941,702.53a.7.7,0,0,1-.718.685.712.712,0,1,1,.018-1.425A.7.7,0,0,1,402.941,702.53Z" transform="translate(-36.287 -85.539)" fill="#f99506"/>
    <path id="Path_8356" data-name="Path 8356" d="M539.015,660.883a.694.694,0,0,1-.7-.69.714.714,0,0,1,.707-.731.736.736,0,0,1,.713.735A.711.711,0,0,1,539.015,660.883Z" transform="translate(-152.837 -49.475)" fill="#f99506"/>
  </g>
</svg>
