<svg xmlns="http://www.w3.org/2000/svg" width="194.315" height="137.737" viewBox="0 0 194.315 137.737">
  <g id="logo" transform="translate(2147.212 700.825)">
    <g id="Group_3" data-name="Group 3" transform="translate(-2147.212 -700.825)">
      <g id="Group_1" data-name="Group 1" transform="translate(109.588 29.236)">
        <path id="Path_1" data-name="Path 1" d="M-1806.2-632.454h-55.906a28.112,28.112,0,0,0-8.928,1.391c-7.868,2.632-20.474,10.091-19.872,30.81,0,0-.087,8.979,8.871,15.445a11.077,11.077,0,0,0,5.522,1.693h25.34s.764-13.79-12.116-18.266l32.42,1.128S-1806.857-597.742-1806.2-632.454Z" transform="translate(1890.929 632.454)" fill="#fff"/>
        <path id="Path_2" data-name="Path 2" d="M-1890.929-497.927h55.045a31.329,31.329,0,0,0,14.53-3.4c7.34-3.836,15.622-11.914,15.13-28.8,0,0,.087-8.979-8.872-15.445a11.076,11.076,0,0,0-5.521-1.693h-25.34s.348,13.166,13.229,17.641l-33.532-.5S-1890.274-532.639-1890.929-497.927Z" transform="translate(1890.929 583.693)" fill="#fff"/>
      </g>
      <g id="Group_2" data-name="Group 2">
        <rect id="Rectangle_1" data-name="Rectangle 1" width="16.684" height="12.007" rx="0.755" transform="translate(86.979 48.763) rotate(1.25)" fill="#fff"/>
        <path id="Path_3" data-name="Path 3" d="M-2043.649-627.887l-.787,27.636a13.612,13.612,0,0,1-7.884,13.441,8.255,8.255,0,0,1-3.711.855l-78.956.137a13.626,13.626,0,0,1-8.055-2.462c-4.754-3.455-4.669-8.414-3.506-12.347a19.9,19.9,0,0,1,5.421-8.619l93.2-88.96.171-.171,2-2.086a1.2,1.2,0,0,1,2.052.855l-.41,23.8a3.41,3.41,0,0,1-1.026,2.377l-62.456,62.075a1.236,1.236,0,0,0,.869,2.113l42.348.1a3.418,3.418,0,0,0,3.424-3.272l.6-13.923.017-.462.1-4.617a1.837,1.837,0,0,1,1.9-1.778l12.963.342a1.848,1.848,0,0,1,1.8,1.881l-.086,2.89A.693.693,0,0,1-2043.649-627.887Z" transform="translate(2147.212 700.825)" fill="#fff"/>
      </g>
    </g>
    <text id="WE_VALUE_YOUR_TIME" data-name="WE VALUE YOUR TIME" transform="translate(-2137.132 -568.088)" fill="#fff" font-size="15" font-family="Nunito-SemiBold, Nunito" font-weight="600"><tspan x="0" y="0">WE VALUE YOUR TIME</tspan></text>
  </g>
</svg>
