<svg xmlns="http://www.w3.org/2000/svg" width="24.872" height="33.906" viewBox="0 0 24.872 33.906">
  <g id="password" transform="translate(-251.339 -216.451)">
    <path id="Path_8357" data-name="Path 8357" d="M299.159,216.451c.279.054.559.1.836.163a7.881,7.881,0,0,1,6.278,7.734c.031,1.478.013,2.957,0,4.435a1.135,1.135,0,0,1-1.5,1.168,1.162,1.162,0,0,1-.769-1.19c0-1.478.01-2.957-.005-4.435a5.636,5.636,0,0,0-11.269-.191c-.036,1.6-.006,3.2-.01,4.8a1.137,1.137,0,0,1-.765,1.123,1.064,1.064,0,0,1-1.221-.344,1.369,1.369,0,0,1-.263-.722c-.02-1.611-.032-3.222,0-4.832a7.867,7.867,0,0,1,6.911-7.649,1.008,1.008,0,0,0,.183-.059Z" transform="translate(-34.589)" fill="#f99506"/>
    <path id="Path_8358" data-name="Path 8358" d="M263.78,353.165c2.99,0,5.98-.006,8.971,0a3.353,3.353,0,0,1,3.369,2.67,4.155,4.155,0,0,1,.086.887q.008,5.478,0,10.957a3.4,3.4,0,0,1-3.583,3.568q-8.888,0-17.776,0a3.372,3.372,0,0,1-3.415-2.658,3.753,3.753,0,0,1-.089-.82q-.009-5.561,0-11.122a3.373,3.373,0,0,1,2.906-3.444,4.421,4.421,0,0,1,.726-.037Q259.378,353.163,263.78,353.165Zm.015,2.254v.008h-8.838a1.181,1.181,0,0,0-1.358,1.353q0,5.429,0,10.857a1.182,1.182,0,0,0,1.355,1.357H272.6a1.182,1.182,0,0,0,1.354-1.359q0-5.428,0-10.857c0-.934-.424-1.359-1.351-1.359Z" transform="translate(0 -120.892)" fill="#f99506"/>
    <path id="Path_8359" data-name="Path 8359" d="M349.025,414.756c0-.364-.008-.728,0-1.092a1.125,1.125,0,0,1,2.248-.02q.026,1.141,0,2.283a1.124,1.124,0,0,1-2.247-.013C349.018,415.529,349.025,415.142,349.025,414.756Z" transform="translate(-86.379 -173.438)" fill="#f99506"/>
  </g>
</svg>
