<?xml version="1.0" encoding="UTF-8"?>
<svg id="Layer_1" data-name="Layer 1" xmlns="http://www.w3.org/2000/svg" viewBox="0 0 20 20">
  <defs>
    <style>
      .cls-1 {
        fill: #f9f4f4;
      }
    </style>
  </defs>
  <path class="cls-1" d="M10,11.8c-1.2,0-2.3-.3-3.3-1-1-.6-1.7-1.6-2.2-2.6-.4-1.1-.6-2.3-.3-3.4,.2-1.1,.8-2.2,1.6-3,.8-.8,1.9-1.4,3-1.6,1.1-.2,2.3-.1,3.4,.3,1.1,.4,2,1.2,2.6,2.2,.6,1,1,2.1,1,3.3,0,1.6-.6,3.1-1.7,4.2-1.1,1.1-2.6,1.7-4.2,1.7Zm0-10.3c-.9,0-1.7,.3-2.4,.7-.7,.5-1.3,1.2-1.6,2-.3,.8-.4,1.7-.2,2.5,.2,.8,.6,1.6,1.2,2.2,.6,.6,1.4,1,2.2,1.2,.8,.2,1.7,0,2.5-.2s1.5-.9,2-1.6c.5-.7,.7-1.6,.7-2.4,0-1.2-.5-2.3-1.3-3.1-.8-.8-1.9-1.3-3.1-1.3Z"/>
  <path class="cls-1" d="M19.2,20c-.2,0-.4,0-.5-.2s-.2-.3-.2-.5c0-2-.8-3.9-2.2-5.3s-3.3-2.2-5.3-2.2h-2.1c-2,0-3.9,.8-5.3,2.2-1.4,1.4-2.2,3.3-2.2,5.3,0,.2,0,.4-.2,.5-.1,.1-.3,.2-.5,.2s-.4,0-.5-.2C0,19.6,0,19.4,0,19.2c0-2.4,.9-4.7,2.6-6.3,1.7-1.7,4-2.6,6.3-2.6h2.1c2.4,0,4.7,.9,6.3,2.6,1.7,1.7,2.6,4,2.6,6.3,0,.2,0,.4-.2,.5s-.3,.2-.5,.2Z"/>
</svg>