<?xml version="1.0" encoding="UTF-8"?>
<svg id="Layer_1" data-name="Layer 1" xmlns="http://www.w3.org/2000/svg" viewBox="0 0 20 20">
  <defs>
    <style>
      .cls-1 {
        fill: #f9f7f7;
      }
    </style>
  </defs>
  <path class="cls-1" d="M17.1,2.9C15.2,1,12.7,0,10,0S4.9,1,3,2.9C1.1,4.8,0,7.3,0,10s1,5.2,2.9,7.1c1.9,1.9,4.4,2.9,7,2.9s5.2-1,7-2.9c1.9-1.9,2.9-4.4,2.9-7.1s-1-5.2-2.9-7.1Zm-7,15.8c-4.8,0-8.7-3.9-8.7-8.7S5.3,1.3,10,1.3s8.7,3.9,8.7,8.7-3.9,8.7-8.7,8.7Z"/>
  <rect class="cls-1" x="9.4" y="2.6" width="1.3" height="2.1"/>
  <polygon class="cls-1" points="5.2 4.4 6.2 3.6 7.5 5.4 6.4 6.1 5.2 4.4"/>
  <polygon class="cls-1" points="2.8 8.3 3.2 7.1 5.2 7.8 4.8 9 2.8 8.3"/>
  <polygon class="cls-1" points="2.8 11.7 4.8 11 5.2 12.2 3.2 12.9 2.8 11.7"/>
  <polygon class="cls-1" points="14.8 12.2 15.2 11 17.3 11.7 16.9 12.9 14.8 12.2"/>
  <polygon class="cls-1" points="14.8 7.8 16.9 7.1 17.3 8.3 15.2 9 14.8 7.8"/>
  <polygon class="cls-1" points="12.6 5.4 13.8 3.6 14.9 4.4 13.6 6.1 12.6 5.4"/>
  <path class="cls-1" d="M6.7,13.1v4h6.8v-4H6.7Zm5.5,2.7H8v-1.4h4.2v1.4h0Z"/>
  <path class="cls-1" d="M10.7,9.1v-3.2h-1.3v3.2c-.6,.3-1,.8-1,1.5s.7,1.7,1.7,1.7,1.7-.7,1.7-1.7c0-.7-.4-1.3-1-1.5Zm-.7,1.9c-.2,0-.4-.2-.4-.4s.2-.4,.4-.4,.4,.2,.4,.4-.2,.4-.4,.4Z"/>
</svg>