<?xml version="1.0" encoding="UTF-8"?>
<svg id="Layer_1" data-name="Layer 1" xmlns="http://www.w3.org/2000/svg" viewBox="0 0 20 20">
  <defs>
    <style>
      .cls-1 {
        fill: #fcfafa;
      }
    </style>
  </defs>
  <path class="cls-1" d="M12.9,14.1c0,0-.1,0-.2,0-.1,0-.2-.2-.2-.3v-1.8H5.3c-.2,0-.4-.2-.4-.4v-2.5c0-.2,.2-.4,.4-.4h7.2v-1.8c0-.1,0-.3,.2-.3,.1,0,.3,0,.4,0l5.9,3.4c.1,0,.2,.2,.2,.3s0,.3-.2,.3l-5.9,3.4c0,0-.1,0-.2,0Zm-7.2-3h7.2c.2,0,.4,.2,.4,.4v1.5l4.8-2.7-4.8-2.7v1.5c0,.2-.2,.4-.4,.4H5.7v1.7Z"/>
  <path class="cls-1" d="M10.7,16H.8c-.4,0-.7-.3-.7-.7V5.4c0-.4,.3-.7,.7-.7H10.7c.4,0,.7,.3,.7,.7v2.4c0,.2-.2,.4-.4,.4s-.4-.2-.4-.4v-2.2H.9V15.2H10.6v-2.4c0-.2,.2-.4,.4-.4s.4,.2,.4,.4v2.5c0,.4-.3,.7-.7,.7Z"/>
</svg>