<?xml version="1.0" encoding="UTF-8"?>
<svg id="Layer_1" data-name="Layer 1" xmlns="http://www.w3.org/2000/svg" viewBox="0 0 20 20">
  <defs>
    <style>
      .cls-1 {
        fill: #fcf5f5;
      }

      .cls-2 {
        fill: #f9f4f4;
      }

      .cls-3 {
        fill: #f9f7f7;
      }
    </style>
  </defs>
  <path class="cls-3" d="M19.7,2h-1.4V.3c0-.2-.1-.3-.3-.3s-.3,.1-.3,.3v1.7h-2V.3c0-.2-.1-.3-.3-.3s-.3,.1-.3,.3v1.7h-2V.3c0-.2-.1-.3-.3-.3s-.3,.1-.3,.3v1.7h-2V.3c0-.2-.1-.3-.3-.3s-.3,.1-.3,.3v1.7h-2V.3c0-.2-.1-.3-.3-.3s-.3,.1-.3,.3v1.7h-2V.3c0-.2-.1-.3-.3-.3s-.3,.1-.3,.3v1.7H2.3V.3c0-.2-.1-.3-.3-.3s-.3,.1-.3,.3v1.7H.3C.1,2,0,2.2,0,2.4V19.7C0,19.9,.1,20,.3,20H19.7c.2,0,.3-.1,.3-.3V2.4c0-.2-.1-.3-.3-.3Zm-.3,17.3H.6V2.7H1.7v.7c0,.2,.1,.3,.3,.3s.3-.1,.3-.3v-.7h2v.7c0,.2,.1,.3,.3,.3s.3-.1,.3-.3v-.7h2v.7c0,.2,.1,.3,.3,.3s.3-.1,.3-.3v-.7h2v.7c0,.2,.1,.3,.3,.3s.3-.1,.3-.3v-.7h2v.7c0,.2,.1,.3,.3,.3s.3-.1,.3-.3v-.7h2v.7c0,.2,.1,.3,.3,.3s.3-.1,.3-.3v-.7h2v.7c0,.2,.1,.3,.3,.3s.3-.1,.3-.3v-.7h1V19.4h0Z"/>
  <path class="cls-2" d="M17.5,9.9H2.7c-.2,0-.3,.1-.3,.2v2c0,.1,.1,.2,.3,.2h14.8c.2,0,.3-.1,.3-.2v-2c0-.1-.1-.2-.3-.2Zm-.3,2H3v-1.5h14.3v1.5Z"/>
  <path class="cls-2" d="M7.7,6.1H3c-.2,0-.3,.1-.3,.2v2.3c0,.1,.1,.2,.3,.2h1.6l.5,.6c0,0,.1,.1,.2,.1s.2,0,.2-.1l.5-.6h1.6c.2,0,.3-.1,.3-.2v-2.3c0-.1-.1-.2-.3-.2Zm-.3,2.3h-1.5c0,0-.2,0-.2,.1l-.4,.5-.4-.5c0,0-.1-.1-.2-.1h-1.5v-1.8H7.5v1.8h0Z"/>
  <path class="cls-2" d="M6.9,6.9c-.2,0-.3,.1-.3,.2v.8c0,.1,.1,.2,.3,.2s.3-.1,.3-.2v-.8c0-.1-.1-.2-.3-.2Z"/>
  <path class="cls-1" d="M17.2,6.1h-4.7c-.2,0-.3,.1-.3,.2v2.3c0,.1,.1,.2,.3,.2h1.6l.5,.6c0,0,.1,.1,.2,.1s.2,0,.2-.1l.5-.6h1.6c.2,0,.3-.1,.3-.2v-2.3c0-.1-.1-.2-.3-.2Zm-.3,2.3h-1.5c0,0-.2,0-.2,.1l-.4,.5-.4-.5c0,0-.1-.1-.2-.1h-1.5v-1.8h4.2v1.8h0Z"/>
  <path class="cls-3" d="M16.3,6.9c-.2,0-.3,.1-.3,.2v.8c0,.1,.1,.2,.3,.2s.3-.1,.3-.2v-.8c0-.1-.1-.2-.3-.2Z"/>
  <path class="cls-2" d="M12.5,13.1h-1.6l-.5-.6c0,0-.1-.1-.2-.1s-.2,0-.2,.1l-.5,.6h-1.6c-.2,0-.3,.1-.3,.2v2.3c0,.1,.1,.2,.3,.2h4.7c.2,0,.3-.1,.3-.2v-2.3c0-.1-.1-.2-.3-.2Zm-.3,2.3h-4.2v-1.8h1.5c0,0,.2,0,.2-.1l.4-.5,.4,.5c0,0,.1,.1,.2,.1h1.5v1.8h0Z"/>
  <path class="cls-2" d="M11.6,13.9c-.2,0-.3,.1-.3,.2v.8c0,.1,.1,.2,.3,.2s.3-.1,.3-.2v-.8c0-.1-.1-.2-.3-.2Z"/>
</svg>