<?xml version="1.0" encoding="UTF-8"?>
<svg id="Layer_1" data-name="Layer 1" xmlns="http://www.w3.org/2000/svg" viewBox="0 0 20 20">
  <defs>
    <style>
      .cls-1 {
        fill: #fcfcfc;
      }
    </style>
  </defs>
  <path class="cls-1" d="M17.2,15.6h-.6v-7.5c0-3.1-2.4-5.7-5.6-6.1v-.9c0-.5-.4-.9-.9-.9s-.9,.4-.9,.9v.9c-3.2,.4-5.6,3-5.6,6.1v7.5h-.6c-.4,0-.8,.3-.8,.7v.7c0,0,0,.2,.2,.2H7.5c0,1.4,1.2,2.5,2.6,2.5s2.6-1.1,2.6-2.5h5.1c.1,0,.2,0,.2-.2v-.7c0-.4-.3-.7-.8-.7Zm-7.1,2.6c-.6,0-1.1-.5-1.1-1.1h2.3c0,.6-.5,1.1-1.1,1.1Zm4.9-2.6H5.2v-7.5c0-1.2,.5-2.4,1.4-3.2s2.1-1.3,3.5-1.3,2.5,.5,3.5,1.3,1.4,2,1.4,3.2v7.5Z"/>
</svg>