<?xml version="1.0" encoding="UTF-8"?>
<svg id="Layer_1" data-name="Layer 1" xmlns="http://www.w3.org/2000/svg" viewBox="0 0 20 20">
  <defs>
    <style>
      .cls-1 {
        fill: #fcfafa;
      }
    </style>
  </defs>
  <path class="cls-1" d="M9.1,1.2l.5,.5h0l-.5-.5ZM1.3,9l-.5-.5H.9l.5,.5Zm0,2l.5-.5h0l-.5,.5Zm7.8,7.8l-.5,.5,.5-.5Zm2,0l-.5-.5,.5,.5Zm7.8-7.8l.5,.5-.5-.5Zm0-2l-.5,.5,.5-.5ZM11.1,1.2l.5-.5h0l-.5,.5Zm-2.5-.5L.9,8.5l1,1L9.6,1.7l-1-1ZM.9,11.4l7.8,7.8,1-1L1.8,10.5l-1,1Zm10.7,7.8l7.8-7.8-1-1-7.8,7.8,1,1Zm7.8-10.7L11.6,.7l-1,1,7.8,7.8,1-1Zm0,3c.8-.8,.8-2.1,0-3l-1,1c.3,.3,.3,.7,0,1l1,1Zm-10.7,7.8c.8,.8,2.1,.8,3,0l-1-1c-.3,.3-.7,.3-1,0l-1,1ZM.9,8.5c-.8,.8-.8,2.1,0,3l1-1c-.3-.3-.3-.7,0-1l-1-1ZM9.6,1.7c.3-.3,.7-.3,1,0l1-1c-.8-.8-2.1-.8-3,0l1,1Zm-2.8,1.8l1.4,1.4,1-1-1.4-1.4-1,1Zm3.3,3c-.4,0-.7-.3-.7-.7h-1.4c0,1.2,.9,2.1,2.1,2.1v-1.4Zm.7-.7c0,.4-.3,.7-.7,.7v1.4c1.2,0,2.1-.9,2.1-2.1h-1.4Zm-.7-.7c.4,0,.7,.3,.7,.7h1.4c0-1.2-.9-2.1-2.1-2.1v1.4Zm0-1.4c-1.2,0-2.1,.9-2.1,2.1h1.4c0-.4,.3-.7,.7-.7v-1.4Zm.9,4l2.1,2.1,1-1-2.1-2.1-1,1Zm3.3,3c-.4,0-.7-.3-.7-.7h-1.4c0,1.2,.9,2.1,2.1,2.1v-1.4Zm.7-.7c0,.4-.3,.7-.7,.7v1.4c1.2,0,2.1-.9,2.1-2.1h-1.4Zm-.7-.7c.4,0,.7,.3,.7,.7h1.4c0-1.2-.9-2.1-2.1-2.1v1.4Zm0-1.4c-1.2,0-2.1,.9-2.1,2.1h1.4c0-.4,.3-.7,.7-.7v-1.4Zm-4.9-.7v5.6h1.4V7.2h-1.4Zm.7,7.7c-.4,0-.7-.3-.7-.7h-1.4c0,1.2,.9,2.1,2.1,2.1v-1.4Zm.7-.7c0,.4-.3,.7-.7,.7v1.4c1.2,0,2.1-.9,2.1-2.1h-1.4Zm-.7-.7c.4,0,.7,.3,.7,.7h1.4c0-1.2-.9-2.1-2.1-2.1v1.4Zm0-1.4c-1.2,0-2.1,.9-2.1,2.1h1.4c0-.4,.3-.7,.7-.7v-1.4Z"/>
</svg>