<svg xmlns="http://www.w3.org/2000/svg" width="36" height="36" viewBox="0 0 36 36">
  <g id="company_registered" transform="translate(-444 -153)">
    <g id="Start_icon" data-name="Start/icon" transform="translate(444 153)">
      <circle id="Oval_Copy_6" data-name="Oval Copy 6" cx="18" cy="18" r="18" fill="#fff" opacity="0.235"/>
    </g>
    <path id="Icon_awesome-building" data-name="Icon awesome-building" d="M14,15.408h-.642V.77a.77.77,0,0,0-.77-.77H1.8a.77.77,0,0,0-.77.77V15.408H.385A.385.385,0,0,0,0,15.793v.642H14.38v-.642A.385.385,0,0,0,14,15.408ZM4.109,2.44a.385.385,0,0,1,.385-.385H5.778a.385.385,0,0,1,.385.385V3.723a.385.385,0,0,1-.385.385H4.494a.385.385,0,0,1-.385-.385Zm0,3.082a.385.385,0,0,1,.385-.385H5.778a.385.385,0,0,1,.385.385V6.8a.385.385,0,0,1-.385.385H4.494A.385.385,0,0,1,4.109,6.8Zm1.669,4.751H4.494a.385.385,0,0,1-.385-.385V8.6a.385.385,0,0,1,.385-.385H5.778a.385.385,0,0,1,.385.385V9.887A.385.385,0,0,1,5.778,10.272Zm2.44,5.136H6.163v-2.7a.385.385,0,0,1,.385-.385H7.832a.385.385,0,0,1,.385.385Zm2.054-5.521a.385.385,0,0,1-.385.385H8.6a.385.385,0,0,1-.385-.385V8.6A.385.385,0,0,1,8.6,8.217H9.887a.385.385,0,0,1,.385.385Zm0-3.082a.385.385,0,0,1-.385.385H8.6A.385.385,0,0,1,8.217,6.8V5.521A.385.385,0,0,1,8.6,5.136H9.887a.385.385,0,0,1,.385.385Zm0-3.082a.385.385,0,0,1-.385.385H8.6a.385.385,0,0,1-.385-.385V2.44A.385.385,0,0,1,8.6,2.054H9.887a.385.385,0,0,1,.385.385Z" transform="translate(455 163)" fill="#fff"/>
  </g>
</svg>
