<svg xmlns="http://www.w3.org/2000/svg" width="19.186" height="19.185" viewBox="0 0 19.186 19.185">
  <path id="dashboard_white" d="M32.875,617.185a1,1,0,0,1-1-1v-6.309a1,1,0,0,1,1-1h6.31a1,1,0,0,1,1,1v6.309a1,1,0,0,1-1,1Zm-10.875,0a1,1,0,0,1-1-1v-6.309a1,1,0,0,1,1-1h6.309a1,1,0,0,1,1,1v6.309a1,1,0,0,1-1,1Zm10.875-10.876a1,1,0,0,1-1-1V599a1,1,0,0,1,1-1h6.31a1,1,0,0,1,1,1v6.309a1,1,0,0,1-1,1Zm-10.875,0a1,1,0,0,1-1-1V599a1,1,0,0,1,1-1h6.309a1,1,0,0,1,1,1v6.309a1,1,0,0,1-1,1Z" transform="translate(-21 -598)" fill="#fff"/>
</svg>
