<svg xmlns="http://www.w3.org/2000/svg" width="14.726" height="19.635" viewBox="0 0 14.726 19.635">
  <path id="file-pdf" d="M6.976,9.821a3.7,3.7,0,0,1-.077-1.8C7.221,8.023,7.191,9.438,6.976,9.821Zm-.065,1.81a17.7,17.7,0,0,1-1.089,2.4,14.122,14.122,0,0,1,2.412-.84A4.968,4.968,0,0,1,6.911,11.632ZM3.3,16.418c0,.031.506-.207,1.338-1.542A5.3,5.3,0,0,0,3.3,16.418ZM9.511,6.136h5.216V18.715a.918.918,0,0,1-.92.92H.92a.918.918,0,0,1-.92-.92V.92A.918.918,0,0,1,.92,0H8.59V5.216A.923.923,0,0,0,9.511,6.136ZM9.2,12.725a3.849,3.849,0,0,1-1.638-2.063A5.512,5.512,0,0,0,7.8,8.2a.96.96,0,0,0-1.833-.261,6.377,6.377,0,0,0,.311,2.953,36.012,36.012,0,0,1-1.565,3.29s0,0-.008,0c-1.039.533-2.823,1.707-2.09,2.608a1.192,1.192,0,0,0,.825.384c.686,0,1.369-.69,2.343-2.37a21.86,21.86,0,0,1,3.03-.89,5.812,5.812,0,0,0,2.454.748A.993.993,0,0,0,12.027,13c-.533-.522-2.082-.372-2.823-.276Zm5.254-8.7L10.7.268A.92.92,0,0,0,10.048,0h-.23V4.909h4.909V4.675A.917.917,0,0,0,14.458,4.027Zm-2.842,9.791c.157-.1-.1-.456-1.641-.345C11.4,14.078,11.616,13.818,11.616,13.818Z" fill="#fff"/>
</svg>
