<svg xmlns="http://www.w3.org/2000/svg" width="21.766" height="20.507" viewBox="0 0 21.766 20.507">
  <path id="Incident_management" d="M-527.4,179.442V178.8a9.825,9.825,0,0,1,.478-1.307q3.794-7.014,7.619-14.022a3,3,0,0,1,1.339-1.291,3.171,3.171,0,0,1,4.277,1.376q1.971,3.608,3.932,7.231c1.27,2.333,2.545,4.654,3.794,7a3.143,3.143,0,0,1-.68,3.682,3.292,3.292,0,0,1-2.327.871h-15.361a3.055,3.055,0,0,1-2.731-1.785A7.961,7.961,0,0,1-527.4,179.442Zm9.606-7.954v.744c0,.808-.005,1.615,0,2.423a1.27,1.27,0,0,0,1.695,1.233,1.279,1.279,0,0,0,.855-1.281v-6.2a2.145,2.145,0,0,0-.027-.319,1.259,1.259,0,0,0-1.429-1.025,1.272,1.272,0,0,0-1.095,1.307C-517.8,169.41-517.794,170.452-517.794,171.488Zm1.275,8.3a1.28,1.28,0,0,0,1.275-1.265,1.291,1.291,0,0,0-1.265-1.281,1.293,1.293,0,0,0-1.286,1.281A1.281,1.281,0,0,0-516.518,179.787Z" transform="translate(527.4 -161.835)" fill="#fff"/>
</svg>
