<svg xmlns="http://www.w3.org/2000/svg" width="26.037" height="25.901" viewBox="0 0 26.037 25.901">
  <g id="Inquiry_management" transform="translate(-0.068 -0.042)">
    <path id="Path_2861" data-name="Path 2861" d="M843.826,402.885a10.033,10.033,0,0,1-5.2-1.448,3.27,3.27,0,0,1-1.651-3.071,3.04,3.04,0,0,1,1.756-2.777c.727-.4,1.455-.8,2.19-1.189a1.611,1.611,0,0,0,.9-1.511,1.922,1.922,0,0,0-.525-1.546,4.854,4.854,0,0,1-1.224-3.5,3.885,3.885,0,1,1,7.429,1.854,5.658,5.658,0,0,1-1.4,2.162.5.5,0,0,0-.14.308,8.522,8.522,0,0,0,0,.944,1.492,1.492,0,0,0,.826,1.357c.721.364,1.434.755,2.148,1.147a3.16,3.16,0,0,1,1.777,2.826,3.247,3.247,0,0,1-1.658,3.008A10.154,10.154,0,0,1,843.826,402.885Zm.007-7.359c.406-.406.77-.8,1.168-1.168a.611.611,0,0,0,.217-.693,7.331,7.331,0,0,1-.1-1.112,2.839,2.839,0,0,1-2.462-.014c-.091.5-.175.965-.252,1.448a.244.244,0,0,0,.077.168Zm-.7.511c-.434-.434-.853-.867-1.28-1.287l-.811.546,1.084,1.441Zm1.357.035,1.014.665,1.056-1.42-.79-.525C845.344,395.218,844.924,395.645,844.49,396.072Z" transform="translate(-836.9 -376.941)" fill="#fff"/>
    <path id="Path_2862" data-name="Path 2862" d="M1003.058,295.51a7.759,7.759,0,0,1-2.672-.616.434.434,0,0,0-.434.021c-.77.434-1.546.846-2.323,1.273-.189.1-.385.2-.58.035s-.154-.371-.091-.581c.238-.784.462-1.574.706-2.357a.39.39,0,0,0-.091-.42,7.274,7.274,0,0,1-1.364-7.373,7.151,7.151,0,0,1,5.757-4.827,7.378,7.378,0,0,1,8.632,6.275,7.485,7.485,0,0,1-6.135,8.429C1004,295.454,1003.526,295.468,1003.058,295.51Zm-5.037-.469c.672-.364,1.266-.714,1.882-1.021a.686.686,0,0,1,.539-.028,6.281,6.281,0,0,0,4.26.469,6.644,6.644,0,1,0-6.254-1.924.565.565,0,0,1,.147.623C998.406,293.761,998.224,294.369,998.021,295.041Z" transform="translate(-984.568 -280.5)" fill="#fff"/>
    <path id="Path_2863" data-name="Path 2863" d="M844.985,348.651c-.1.126-.168.294-.287.35a.478.478,0,0,1-.427-.028c-.819-.686-1.616-1.385-2.42-2.085a.385.385,0,0,1-.021-.56.392.392,0,0,1,.546-.042c.811.679,1.616,1.357,2.413,2.05A1.231,1.231,0,0,1,844.985,348.651Z" transform="translate(-841.319 -341.56)" fill="#fff"/>
    <path id="Path_2864" data-name="Path 2864" d="M891.735,315.837c0,.448.007.9,0,1.336-.007.322-.14.476-.4.469s-.406-.168-.406-.469c-.007-.909-.007-1.819,0-2.721,0-.3.133-.448.392-.455s.406.14.413.455C891.742,314.913,891.735,315.375,891.735,315.837Z" transform="translate(-887.082 -311.614)" fill="#fff"/>
    <path id="Path_2865" data-name="Path 2865" d="M1064.218,313.248a2.8,2.8,0,0,1-1.1,2.029,2.108,2.108,0,0,0-.909,1.791,1.047,1.047,0,0,1-1.014,1.035,1.033,1.033,0,0,1-1.133-.881,3.59,3.59,0,0,1,.888-2.889,6.387,6.387,0,0,1,.706-.665,1.031,1.031,0,0,0,.3-1.035.9.9,0,0,0-.867-.637.882.882,0,0,0-.875.714c-.035.161-.028.336-.07.49a1.1,1.1,0,0,1-2.148-.336,3.021,3.021,0,0,1,2.49-2.959A3.207,3.207,0,0,1,1064.218,313.248Z" transform="translate(-1042.469 -307.752)" fill="#fff"/>
    <path id="Path_2866" data-name="Path 2866" d="M1087.6,436.168a1.179,1.179,0,1,1-1.182-1.175,1.148,1.148,0,0,1,1.182,1.175Z" transform="translate(-1067.806 -424.145)" fill="#fff"/>
  </g>
</svg>
