<svg xmlns="http://www.w3.org/2000/svg" width="19.629" height="19.271" viewBox="0 0 19.629 19.271">
  <path id="microsoftexcel" d="M19.264,2.686H12.688V3.9h1.938V5.829H12.688v.613h1.938V8.37H12.688V9h1.938v1.823H12.688v.73h1.938v1.827H12.688v.73h1.938v1.838H12.688V17.29h6.576c.1-.031.191-.154.26-.366a1.793,1.793,0,0,0,.106-.52V2.909c0-.1-.036-.168-.106-.19A.9.9,0,0,0,19.264,2.686Zm-.853,13.261H15.256V14.112h3.155v1.836Zm0-2.567H15.256V11.553h3.155Zm0-2.558H15.256V9.008h3.155v1.815Zm0-2.454H15.256V6.444h3.155V8.37h0Zm0-2.551H15.256V3.9h3.155V5.818ZM0,2.383V17.6l11.581,2V.328L0,2.39ZM6.865,13.892q-.066-.179-.62-1.524c-.367-.9-.589-1.418-.653-1.567h-.02L4.328,13.757l-1.66-.112L4.637,9.965l-1.8-3.681L4.527,6.2l1.119,2.88h.022L6.932,6.064l1.749-.11L6.6,9.937,8.745,14l-1.88-.11Z" transform="translate(0 -0.328)" fill="#fff"/>
</svg>
