<svg id="search" xmlns="http://www.w3.org/2000/svg" width="23.05" height="22.161" viewBox="0 0 23.05 22.161">
  <path id="search-2" data-name="search" d="M21.462,22.161a1.824,1.824,0,0,1-1.253-.505l-6.171-5.934a9.2,9.2,0,0,1-5.06,1.5A8.81,8.81,0,0,1,0,8.611,8.81,8.81,0,0,1,8.978,0a8.812,8.812,0,0,1,8.981,8.611,8.317,8.317,0,0,1-1.583,4.877l6.153,5.917a1.6,1.6,0,0,1,.082,2.281c-.01.012-.021.022-.031.032a1.666,1.666,0,0,1-.179.147A1.6,1.6,0,0,1,21.462,22.161ZM8.976,1.9A6.9,6.9,0,0,0,1.939,8.646a6.9,6.9,0,0,0,7.038,6.747,6.9,6.9,0,0,0,7.037-6.747A6.9,6.9,0,0,0,8.976,1.9Z" transform="translate(0)" fill="#b2b2b2"/>
  <path id="search-3" data-name="search" d="M21.462,22.161a1.824,1.824,0,0,1-1.253-.505l-6.171-5.934a9.2,9.2,0,0,1-5.06,1.5A8.81,8.81,0,0,1,0,8.611,8.81,8.81,0,0,1,8.978,0a8.812,8.812,0,0,1,8.981,8.611,8.317,8.317,0,0,1-1.583,4.877l6.153,5.917a1.6,1.6,0,0,1,.082,2.281c-.01.012-.021.022-.031.032a1.666,1.666,0,0,1-.179.147A1.6,1.6,0,0,1,21.462,22.161ZM8.976,1.9A6.9,6.9,0,0,0,1.939,8.646a6.9,6.9,0,0,0,7.038,6.747,6.9,6.9,0,0,0,7.037-6.747A6.9,6.9,0,0,0,8.976,1.9Z" transform="translate(0)" fill="#b2b2b2"/>
</svg>
