<svg xmlns="http://www.w3.org/2000/svg" width="25.921" height="22.684" viewBox="0 0 25.921 22.684">
  <path id="table_date" d="M45.188,687.755a2.36,2.36,0,0,0-1.76-.757H22.492a2.361,2.361,0,0,0-1.76.757A2.526,2.526,0,0,0,20,689.576v17.529a2.524,2.524,0,0,0,.732,1.82,2.361,2.361,0,0,0,1.76.757H43.428a2.36,2.36,0,0,0,1.76-.757,2.526,2.526,0,0,0,.732-1.82V689.576A2.526,2.526,0,0,0,45.188,687.755ZM27.975,707.1a.511.511,0,0,1-.14.371.476.476,0,0,1-.358.145H22.492a.477.477,0,0,1-.358-.145.512.512,0,0,1-.14-.371v-3.093a.51.51,0,0,1,.14-.37.476.476,0,0,1,.358-.145h4.985a.475.475,0,0,1,.358.145.51.51,0,0,1,.14.37Zm0-6.186a.511.511,0,0,1-.14.37.475.475,0,0,1-.358.145H22.492a.476.476,0,0,1-.358-.145.512.512,0,0,1-.14-.37v-3.094a.511.511,0,0,1,.14-.37.477.477,0,0,1,.358-.145h4.985a.476.476,0,0,1,.358.145.511.511,0,0,1,.14.37Zm0-6.187a.511.511,0,0,1-.14.371.478.478,0,0,1-.358.145H22.492a.478.478,0,0,1-.358-.145.513.513,0,0,1-.14-.371v-3.093a.512.512,0,0,1,.14-.371.478.478,0,0,1,.358-.145h4.985a.477.477,0,0,1,.358.145.512.512,0,0,1,.14.371ZM35.951,707.1a.513.513,0,0,1-.14.371.477.477,0,0,1-.358.145H30.467a.478.478,0,0,1-.358-.145.512.512,0,0,1-.14-.371v-3.093a.51.51,0,0,1,.14-.37.477.477,0,0,1,.358-.145h4.985a.476.476,0,0,1,.358.145.511.511,0,0,1,.14.37V707.1Zm0-6.186a.513.513,0,0,1-.14.37.476.476,0,0,1-.358.145H30.467a.477.477,0,0,1-.358-.145.512.512,0,0,1-.14-.37v-3.094a.511.511,0,0,1,.14-.37.478.478,0,0,1,.358-.145h4.985a.476.476,0,0,1,.358.145.512.512,0,0,1,.14.37v3.094Zm0-6.187a.514.514,0,0,1-.14.371.479.479,0,0,1-.358.145H30.467a.48.48,0,0,1-.358-.145.512.512,0,0,1-.14-.371v-3.093a.512.512,0,0,1,.14-.371.479.479,0,0,1,.358-.145h4.985a.477.477,0,0,1,.358.145.512.512,0,0,1,.14.371v3.093ZM43.926,707.1a.511.511,0,0,1-.14.371.477.477,0,0,1-.358.145H38.443a.477.477,0,0,1-.358-.145.511.511,0,0,1-.139-.371v-3.093a.51.51,0,0,1,.139-.37.476.476,0,0,1,.358-.145h4.985a.476.476,0,0,1,.358.145.51.51,0,0,1,.14.37Zm0-6.186a.511.511,0,0,1-.14.37.477.477,0,0,1-.358.145H38.443a.476.476,0,0,1-.358-.145.511.511,0,0,1-.139-.37v-3.094a.511.511,0,0,1,.139-.37.477.477,0,0,1,.358-.145h4.985a.477.477,0,0,1,.358.145.511.511,0,0,1,.14.37Zm0-6.187a.512.512,0,0,1-.14.371.479.479,0,0,1-.358.145H38.443a.479.479,0,0,1-.358-.145.512.512,0,0,1-.139-.371v-3.093a.511.511,0,0,1,.139-.371.478.478,0,0,1,.358-.145h4.985a.478.478,0,0,1,.358.145.511.511,0,0,1,.14.371Z" transform="translate(-20 -686.998)" fill="#9ea5be"/>
</svg>
